<svg width="2087" height="393" viewBox="0 0 2087 393" fill="none" xmlns="http://www.w3.org/2000/svg">
<path d="M0.404516 384.761V7.11552H168.683C237.721 7.11552 282.487 44.3405 282.487 108.54C282.487 152.779 260.913 185.148 224.237 199.714C256.598 209.425 270.082 233.703 270.621 274.165C271.161 322.719 273.857 357.246 284.645 384.761H235.024C225.855 362.641 223.158 333.509 223.158 273.625C222.619 233.703 203.741 219.136 166.526 219.136H48.4071V384.761H0.404516ZM164.908 45.959H48.4071V180.832H164.908C207.517 180.832 235.024 156.555 235.024 113.396C235.024 69.6967 206.977 45.959 164.908 45.959ZM616.056 158.174H568.592C559.96 81.0261 515.733 40.5641 459.101 40.5641C393.299 40.5641 346.915 93.9739 346.915 195.938C346.915 297.902 393.299 351.312 458.561 351.312C516.812 351.312 560.499 309.771 568.592 231.005H616.056C605.808 335.667 542.161 391.234 458.022 391.234C364.713 391.234 297.833 323.798 297.833 195.938C297.833 68.6177 365.253 0.641602 458.022 0.641602C541.083 0.641602 606.347 54.5909 616.056 158.174ZM641.945 384.761V7.11552H689.408L688.329 221.834L870.092 7.11552H926.185L800.515 156.555L929.415 384.761H874.407L767.614 193.78L688.869 284.954L689.408 384.761H641.945ZM1061.87 384.761V46.4985H932.421V7.11552H1239.85V46.4985H1110.41V384.761H1061.87ZM1416.64 392.313C1315.78 392.313 1252.68 336.746 1252.14 252.045V247.19H1347.61V253.664C1348.15 291.428 1374.57 314.626 1414.49 314.626C1453.86 314.626 1481.91 291.428 1481.91 248.269V7.11552H1580.61V245.032C1580.61 338.904 1518.04 392.313 1416.64 392.313ZM1611.06 384.761V7.11552H1766.93C1883.97 7.11552 1961.64 75.6311 1961.64 196.478C1961.64 316.245 1882.89 384.761 1764.77 384.761H1611.06ZM1762.08 82.6445H1711.38V310.311H1762.08C1823.56 310.311 1859.16 274.165 1859.16 197.017C1859.16 118.251 1823.56 82.6445 1762.08 82.6445ZM1987.15 384.761V7.11552H2086.93V384.761H1987.15Z" fill="#FFFDE9"/>
</svg>
