<svg width="88" height="71" viewBox="0 0 88 71" fill="none" xmlns="http://www.w3.org/2000/svg">
<g clip-path="url(#clip0_5_16)">
<path d="M43.338 57.6651C44.5048 59.3627 45.6611 61.0813 46.8542 62.7711C48.5533 65.1735 50.2786 67.5575 51.9961 69.9468C52.1456 70.1564 52.24 70.3503 52.0879 70.5992C51.9332 70.8507 51.7575 71.0026 51.4245 71C48.2885 70.9869 45.1524 71 42.0164 70.9895C40.3645 70.9843 38.904 70.4262 37.6087 69.4071C35.7732 67.9636 34.2786 66.2057 32.8968 64.343C31.9187 63.0226 30.9958 61.6629 29.9732 60.3792C29.2757 59.5042 28.4576 58.7235 27.6736 57.9218C27.5503 57.796 27.3196 57.7175 27.1387 57.7175C24.7735 57.7044 22.4084 57.7096 20.0459 57.707C19.3039 57.707 18.7454 58.0711 18.2708 58.5899C17.6179 59.2998 17.2062 60.1487 16.8575 61.0342C16.1469 62.8418 15.4651 64.66 14.7257 66.4572C14.2826 67.5313 13.7057 68.5426 12.9558 69.4464C12.1036 70.4734 11.0102 70.9921 9.67816 70.9947C7.17407 71 4.66997 71 2.16849 70.9947C0.513954 70.9921 -0.259563 70.1223 0.0760644 68.4902C0.301564 67.3846 0.645058 66.2922 1.04886 65.2364C5.57459 53.4366 10.1134 41.6422 14.6759 29.8556C15.0823 28.8024 15.6224 27.7911 16.1993 26.8192C17.0725 25.3495 18.4228 24.6971 20.1351 24.7024C25.7227 24.7181 31.313 24.7076 36.9007 24.7076C44.4864 24.7076 52.0748 24.7076 59.6605 24.7102C60.0381 24.7102 60.4235 24.7207 60.7932 24.7914C62.238 25.0718 63.1715 26.138 63.4599 27.8173C63.7378 29.4312 63.473 30.99 62.8988 32.499C61.1131 37.1911 59.3117 41.8753 57.5104 46.5622C56.9099 48.1236 55.8847 49.4047 54.7519 50.6046C52.3134 53.1852 49.5366 55.3046 46.2537 56.7036C45.3438 57.0913 44.3684 57.3297 43.3406 57.6624L43.338 57.6651ZM31.8217 46.1614C34.1842 46.1614 36.5494 46.1457 38.9119 46.1666C40.3435 46.1797 41.6205 45.7396 42.7926 44.9615C43.5792 44.4375 44.3239 43.8166 44.7041 42.9521C45.2993 41.6055 45.787 40.2091 46.2642 38.8128C46.432 38.3229 46.4976 37.7727 46.4871 37.254C46.4766 36.6042 46.1383 36.3423 45.4907 36.3161C45.3779 36.3108 45.2626 36.3161 45.1498 36.3161C39.4625 36.3161 33.7726 36.3239 28.0852 36.3082C27.3537 36.3082 26.7873 36.565 26.415 37.157C25.9535 37.8906 25.4972 38.6425 25.1564 39.4363C24.6215 40.6728 24.1442 41.9408 23.7247 43.2193C23.4992 43.9031 23.3865 44.6393 23.334 45.3623C23.2894 45.9754 23.5517 46.164 24.1626 46.164C26.7165 46.164 29.2704 46.164 31.8217 46.164V46.1614Z" fill="white"/>
<path d="M68.6857 39.0905C68.5388 38.2233 68.3894 37.3535 68.2425 36.4864C67.7181 33.4002 67.2252 30.3114 66.6588 27.2331C66.0898 24.1444 63.6827 21.7524 60.6044 21.1185C56.7578 20.3273 52.9112 19.5413 49.0646 18.7527C48.9702 18.7344 48.8758 18.7003 48.7866 18.627C50.2733 18.4698 51.7627 18.3152 53.2494 18.1554C55.7876 17.883 58.3337 17.6681 60.8587 17.3145C63.7116 16.9136 65.8853 14.5584 66.276 11.6949C66.7925 7.90665 67.3484 4.121 67.8886 0.335343C67.9043 0.22531 67.9331 0.115277 67.9987 0.00262451C68.2058 1.22346 68.413 2.44431 68.6201 3.66253C69.0921 6.43693 69.4723 9.22966 70.0623 11.9779C70.765 15.2553 72.8784 17.2804 76.1508 17.993C79.9738 18.8261 83.8178 19.5754 87.6513 20.3639C87.7457 20.3823 87.8348 20.4242 88 20.4792C84.4602 20.8486 81.0016 21.2023 77.5483 21.5795C76.6962 21.6712 75.8178 21.7315 75.0128 21.9909C72.2438 22.8868 70.7597 24.87 70.3664 27.7257C69.9076 31.0397 69.4251 34.3486 68.9531 37.6601C68.885 38.1342 68.8194 38.6084 68.7538 39.0826C68.7329 39.0826 68.7093 39.0879 68.6883 39.0905H68.6857Z" fill="white"/>
</g>
<defs>
<clipPath id="clip0_5_16">
<rect width="88" height="71" fill="white"/>
</clipPath>
</defs>
</svg>
