<svg width="1229" height="699" viewBox="0 0 1229 699" fill="none" xmlns="http://www.w3.org/2000/svg">
<g clip-path="url(#clip0_1_599)">
<path d="M46.4 548.25H98.44L144.73 628.85H95.45L89.81 617.8H51.81L46.17 628.85H0L46.4 548.25ZM61.37 598.91H80.25L70.81 580.49L61.37 598.91Z" fill="#FAFAFA"/>
<path d="M208.07 628.85H155.22L108.82 548.25H159.71L171.22 570.36L182.73 592.58L194.13 570.36L205.64 548.25H254.46L208.06 628.85H208.07Z" fill="#FAFAFA"/>
<path d="M257.35 548.25H306.52V628.85H257.35V548.25Z" fill="#FAFAFA"/>
<path d="M408.65 628.85H355.8L309.4 548.25H360.29L371.8 570.36L383.31 592.58L394.71 570.36L406.22 548.25H455.04L408.64 628.85H408.65Z" fill="#FAFAFA"/>
<path d="M465.42 548.25H517.46L563.75 628.85H514.47L508.83 617.8H470.83L465.19 628.85H419.02L465.42 548.25ZM480.39 598.91H499.27L489.83 580.49L480.39 598.91Z" fill="#FAFAFA"/>
<path d="M566.52 548.25H623.98L631.92 567.71L639.98 587.51L647.92 567.71L655.87 548.25H713.33V628.85H673.37L673.49 587.86V585.33L672.45 587.86L655.18 628.85H623.29L606.02 587.86L604.87 585.1V587.86L604.98 628.85H566.52V548.25Z" fill="#FAFAFA"/>
<path d="M720.71 548.25H831.02V572.2H769.76V578.76H813.86V599.26H769.76V606.4H831.02V628.85H720.71V548.25Z" fill="#FAFAFA"/>
<path d="M837.35 548.25H884.21L901.14 565.87L917.38 582.8L917.26 564.95V548.25H956.98V628.85H910.12L893.19 611.23L877.07 594.3V628.84H837.35V548.24V548.25Z" fill="#FAFAFA"/>
<path d="M1003.62 574.38H962.17V548.24H1094.47V574.38H1053.02V628.84H1003.62V574.38Z" fill="#FAFAFA"/>
<path d="M1095.05 588.55C1095.05 562.3 1122.34 545.6 1161.72 545.6C1201.1 545.6 1228.39 562.3 1228.39 588.55C1228.39 614.8 1201.1 631.5 1161.72 631.5C1122.34 631.5 1095.05 614.8 1095.05 588.55ZM1176.92 588.78C1176.92 578.99 1170.59 574.5 1161.72 574.5C1152.85 574.5 1146.52 578.99 1146.52 588.78C1146.52 598.57 1152.85 603.06 1161.72 603.06C1170.59 603.06 1176.92 598.45 1176.92 588.78Z" fill="#FAFAFA"/>
<path d="M825.384 606.884L332.742 640.383L336.694 698.499L829.336 665L825.384 606.884Z" fill="#670505" stroke="#670505" stroke-miterlimit="10"/>
<path d="M762.49 192.35L748.21 57.95L657.6 145.53L628.02 18.79L577.86 95.62L518.14 33.52L478.86 246.74L332.59 190.28L361.6 321.65L304.61 341.92L582.92 501.96L819.84 340.21L856.4 172.24L762.51 192.35H762.49ZM694.94 424.06L581.62 501.43L448.51 424.89L475.77 415.19L461.89 352.36L531.85 379.36L550.64 277.38L579.2 307.08L603.19 270.33L617.34 330.95L660.68 289.06L667.51 353.34L712.42 343.72L694.93 424.06H694.94Z" stroke="#FAFAFA" stroke-width="15" stroke-miterlimit="10"/>
<path d="M424.45 651.76L440.4 650.68C446.42 650.27 449.52 652.6 449.79 656.61C449.96 659.14 448.78 661.2 446.52 662.41C448.86 662.88 450.01 664.19 450.18 666.62C450.35 669.05 450.64 671.41 451.31 673.05L440.99 673.75C440.46 672.33 440.22 670.23 440.03 667.34C439.95 666.19 439.49 665.76 438.54 665.82L435.71 666.01L436.26 674.06L426.03 674.76L424.46 651.75L424.45 651.76ZM435.07 656.85L435.34 660.86L437.94 660.68C439.19 660.6 439.9 659.85 439.81 658.54C439.72 657.16 438.92 656.59 437.67 656.67L435.07 656.85Z" fill="#FAFAFA"/>
<path d="M466.57 659.23C466.04 656.29 464.95 655.28 463.66 655.36C462.08 655.47 461.15 656.79 461.42 660.83C461.69 664.87 462.8 666.02 464.37 665.91C465.69 665.82 466.66 664.63 466.75 661.55L476.78 660.87C476.84 668 472.3 672.17 464.6 672.7C456.68 673.24 451.43 669.4 450.89 661.51C450.35 653.62 455.03 649.11 462.96 648.57C470.89 648.03 475.65 651.54 476.65 658.54L466.56 659.23H466.57Z" fill="#FAFAFA"/>
<path d="M477.11 648.17L487.24 647.48L487.78 655.93L492.86 647.1L503.45 646.38L497.35 656.67L505.12 669.39L493.87 670.16L490.32 663.13L488.44 665.6L488.81 670.5L478.68 671.19L477.11 648.18V648.17Z" fill="#FAFAFA"/>
<path d="M512.28 652.12L504.36 652.66L503.93 646.35L530.03 644.57L530.46 650.88L522.5 651.42L523.64 668.12L513.42 668.82L512.28 652.12Z" fill="#FAFAFA"/>
<path d="M553.15 653.34C552.62 650.4 551.53 649.39 550.24 649.47C548.66 649.58 547.73 650.9 548 654.94C548.27 658.98 549.38 660.13 550.96 660.02C552.28 659.93 553.25 658.74 553.34 655.66L563.37 654.98C563.43 662.11 558.89 666.28 551.19 666.81C543.27 667.35 538.02 663.51 537.48 655.62C536.94 647.73 541.62 643.22 549.55 642.68C557.18 642.16 562.24 645.65 563.24 652.65L553.15 653.34Z" fill="#FAFAFA"/>
<path d="M569.18 641.91L580.82 641.12L590.77 663.56L580.74 664.24L579.48 660.86L572.64 661.33L571.82 664.85L562.32 665.5L569.17 641.91H569.18ZM573.82 656.19L577.63 655.93L575.28 649.58L573.81 656.19H573.82Z" fill="#FAFAFA"/>
<path d="M589.93 640.5L602.29 639.66L603.97 645.36L605.79 651.18L606.77 645.17L607.69 639.29L620.02 638.45L621.59 661.46L613.34 662.02L612.58 650.41L612.5 648.73L612.19 650.44L609.89 662.26L602.99 662.73L599.11 651.33L598.56 649.55L598.68 651.36L599.53 662.96L591.51 663.51L589.94 640.5H589.93Z" fill="#FAFAFA"/>
<path d="M621.68 638.34L637.39 637.27C642.95 636.89 646.65 639.38 647 644.48C647.34 649.54 644.01 652.51 638.46 652.89L632.97 653.26L633.47 660.66L623.25 661.36L621.68 638.35V638.34ZM632.31 643.56L632.6 647.77L635.03 647.6C636.35 647.51 637.02 646.8 636.93 645.39C636.84 643.98 636.06 643.3 634.75 643.39L632.32 643.56H632.31Z" fill="#FAFAFA"/>
<path d="M661.18 647.14L653.1 636.2L663.75 635.48L667.18 640.8L669.86 635.07L680.15 634.37L673.63 646.31L681.78 657.38L671.09 658.11L667.61 652.66L664.91 658.53L654.59 659.23L661.17 647.16L661.18 647.14Z" fill="#FAFAFA"/>
<path d="M688.43 645.29L680.35 634.35L691 633.63L694.43 638.95L697.11 633.22L707.4 632.52L700.88 644.46L709.03 655.53L698.34 656.26L694.86 650.81L692.16 656.68L681.84 657.38L688.42 645.31L688.43 645.29Z" fill="#FAFAFA"/>
<path d="M729.26 654.14L717.52 654.94L707.54 632.5L717.9 631.8L720.44 638.6L722.99 645.46L724.55 638.32L726.15 631.24L736.11 630.56L729.26 654.15V654.14Z" fill="#FAFAFA"/>
</g>
<defs>
<clipPath id="clip0_1_599">
<rect width="1228.39" height="699.01" fill="white"/>
</clipPath>
</defs>
</svg>
