<svg width="1278" height="185" viewBox="0 0 1278 185" fill="none" xmlns="http://www.w3.org/2000/svg">
<path d="M0 143.089H44.1476C44.9023 145.371 47.1128 147.327 50.7779 148.957C54.4429 150.479 59.3487 151.673 65.4938 152.543C71.7462 153.303 78.9703 153.684 87.1633 153.684C95.2489 153.684 101.61 153.466 106.245 153.032C110.989 152.488 114.331 151.62 116.272 150.424C118.212 149.12 119.182 147.382 119.182 145.208C119.182 143.144 117.62 141.567 114.493 140.481C111.366 139.286 105.815 138.471 97.8363 138.036C89.8581 137.602 78.6468 137.384 64.2 137.384C53.4196 137.384 44.0937 136.895 36.2237 135.917C28.4615 134.831 22.0469 133.201 16.9799 131.028C12.0207 128.746 8.35513 125.92 5.98338 122.552C3.61164 119.074 2.4257 114.945 2.4257 110.164C2.4257 101.906 5.17482 95.1141 10.6731 89.7896C16.2791 84.3564 24.6881 80.3359 35.9003 77.728C47.2202 75.0114 61.3435 73.6531 78.2691 73.6531C103.065 73.6531 121.986 77.2934 135.03 84.5738C148.183 91.7456 154.759 102.123 154.759 115.706H112.876C112.336 112.12 108.995 109.403 102.849 107.556C96.7044 105.6 87.9719 104.622 76.6519 104.622C65.4394 104.622 57.0847 105.274 51.5864 106.578C46.1956 107.882 43.5008 110.11 43.5008 113.261C43.5008 114.891 44.2554 116.195 45.7648 117.173C47.2745 118.151 49.8619 118.966 53.527 119.618C57.3007 120.162 62.5829 120.541 69.3749 120.759C76.1668 120.977 84.7919 121.085 95.2489 121.085C106.785 121.085 116.595 121.682 124.681 122.878C132.766 123.964 139.289 125.649 144.248 127.931C149.315 130.213 152.98 133.146 155.244 136.732C157.508 140.21 158.64 144.338 158.64 149.12C158.64 157.378 156.053 164.116 150.878 169.331C145.703 174.547 137.51 178.404 126.298 180.904C115.085 183.404 100.424 184.653 82.3119 184.653C72.0697 184.653 62.6372 184.056 54.0121 182.86C45.4953 181.664 37.8948 179.926 31.2106 177.644C24.5264 175.254 18.8665 172.374 14.2307 169.006C9.59502 165.528 6.03732 161.671 3.55768 157.433C1.18593 153.087 0 148.305 0 143.089ZM216.803 137.384V150.424H339.705V181.393H176.375V77.076H339.381V108.045H216.803V121.085H317.065V137.384H216.803ZM401.099 137.384V150.424H524.001V181.393H360.67V77.076H523.677V108.045H401.099V121.085H501.361V137.384H401.099ZM631.159 130.05V120.922L724.468 181.393H664.311L585.071 125.975L658.165 77.076H715.735L631.159 130.05ZM544.966 77.076H585.395V181.393H544.966V77.076ZM781.851 137.384V150.424H904.752V181.393H741.422V77.076H904.429V108.045H781.851V121.085H882.113V137.384H781.851ZM925.718 181.393V77.076H1050.72C1060.53 77.076 1069.32 78.217 1077.08 80.4989C1084.95 82.6722 1091.15 86.3667 1095.68 91.5826C1100.31 96.7985 1102.63 103.916 1102.63 112.935C1102.63 118.911 1101.55 123.856 1099.4 127.768C1097.24 131.68 1094.28 134.722 1090.5 136.895C1086.73 139.069 1082.42 140.644 1077.57 141.622C1072.72 142.6 1067.65 143.197 1062.37 143.415L1050.56 141.133C1063.39 141.241 1073.25 141.785 1080.15 142.763C1087.16 143.741 1092.01 145.534 1094.71 148.142C1097.51 150.642 1098.91 154.281 1098.91 159.063V181.393H1058.48V163.953C1058.48 160.693 1057.84 158.248 1056.54 156.618C1055.36 154.88 1052.66 153.684 1048.46 153.032C1044.36 152.38 1038 152.054 1029.38 152.054H966.147V181.393H925.718ZM966.147 124.834H1050.72C1053.96 124.834 1056.65 124.29 1058.81 123.204C1061.07 122.118 1062.2 120.052 1062.2 117.01C1062.2 114.185 1061.07 112.283 1058.81 111.305C1056.65 110.218 1053.96 109.675 1050.72 109.675H966.147V124.834ZM1119.36 143.089H1163.5C1164.26 145.371 1166.47 147.327 1170.13 148.957C1173.8 150.479 1178.71 151.673 1184.85 152.543C1191.1 153.303 1198.33 153.684 1206.52 153.684C1214.6 153.684 1220.97 153.466 1225.61 153.032C1230.35 152.488 1233.69 151.62 1235.63 150.424C1237.57 149.12 1238.54 147.382 1238.54 145.208C1238.54 143.144 1236.98 141.567 1233.84 140.481C1230.72 139.286 1225.17 138.471 1217.19 138.036C1209.22 137.602 1198 137.384 1183.56 137.384C1172.78 137.384 1163.45 136.895 1155.58 135.917C1147.82 134.831 1141.4 133.201 1136.34 131.028C1131.38 128.746 1127.71 125.92 1125.34 122.552C1122.97 119.074 1121.78 114.945 1121.78 110.164C1121.78 101.906 1124.53 95.1141 1130.03 89.7896C1135.64 84.3564 1144.04 80.3359 1155.26 77.728C1166.58 75.0114 1180.7 73.6531 1197.62 73.6531C1222.42 73.6531 1241.34 77.2934 1254.39 84.5738C1267.54 91.7456 1274.12 102.123 1274.12 115.706H1232.23C1231.7 112.12 1228.35 109.403 1222.21 107.556C1216.06 105.6 1207.33 104.622 1196.01 104.622C1184.8 104.622 1176.44 105.274 1170.94 106.578C1165.55 107.882 1162.86 110.11 1162.86 113.261C1162.86 114.891 1163.61 116.195 1165.12 117.173C1166.63 118.151 1169.22 118.966 1172.88 119.618C1176.66 120.162 1181.94 120.541 1188.73 120.759C1195.53 120.977 1204.14 121.085 1214.6 121.085C1226.14 121.085 1235.95 121.682 1244.04 122.878C1252.13 123.964 1258.64 125.649 1263.61 127.931C1268.68 130.213 1272.34 133.146 1274.6 136.732C1276.86 140.21 1278 144.338 1278 149.12C1278 157.378 1275.41 164.116 1270.23 169.331C1265.06 174.547 1256.86 178.404 1245.66 180.904C1234.44 183.404 1219.78 184.653 1201.67 184.653C1191.43 184.653 1181.99 184.056 1173.37 182.86C1164.85 181.664 1157.25 179.926 1150.57 177.644C1143.88 175.254 1138.22 172.374 1133.59 169.006C1128.95 165.528 1125.39 161.671 1122.91 157.433C1120.54 153.087 1119.36 148.305 1119.36 143.089Z" fill="#051656"/>
<path d="M416 30.1613V1.14488H431.188C433.31 1.14488 435.129 1.45785 436.644 2.08378C438.19 2.6799 439.373 3.6039 440.191 4.85576C441.01 6.07782 441.419 7.64264 441.419 9.55024C441.419 10.8617 441.192 11.9795 440.737 12.9034C440.312 13.7976 439.721 14.5428 438.963 15.1389C438.205 15.735 437.311 16.197 436.281 16.5249C435.25 16.8528 434.143 17.0614 432.961 17.1508L432.643 16.8826C434.431 16.9422 435.932 17.1359 437.145 17.4638C438.357 17.7917 439.282 18.3878 439.918 19.2522C440.585 20.0868 440.919 21.3386 440.919 23.0078V30.1613H436.508V23.1419C436.508 21.9795 436.311 21.0704 435.917 20.4146C435.523 19.7589 434.841 19.2969 433.871 19.0286C432.9 18.7604 431.536 18.6263 429.778 18.6263H420.365V30.1613H416ZM420.365 14.8707H431.188C433.128 14.8707 434.583 14.3938 435.553 13.44C436.553 12.4862 437.054 11.2343 437.054 9.68437C437.054 8.19406 436.553 7.04652 435.553 6.24175C434.583 5.43698 433.128 5.0346 431.188 5.0346H420.365V14.8707ZM475.942 20.2358C475.669 22.4116 474.912 24.2745 473.669 25.8245C472.456 27.3744 470.865 28.5666 468.894 29.4012C466.924 30.2358 464.68 30.6531 462.164 30.6531C459.891 30.6531 457.799 30.3103 455.889 29.6248C454.01 28.9392 452.373 27.9556 450.978 26.6739C449.584 25.3923 448.492 23.8274 447.704 21.9795C446.916 20.1017 446.522 18.0003 446.522 15.6754C446.522 13.3207 446.916 11.2194 447.704 9.37141C448.492 7.52342 449.584 5.95859 450.978 4.67692C452.373 3.36545 454.01 2.36694 455.889 1.68139C457.799 0.995848 459.891 0.653076 462.164 0.653076C464.711 0.653076 466.969 1.08527 468.94 1.94965C470.91 2.78422 472.502 3.99138 473.714 5.57111C474.957 7.12103 475.715 8.98393 475.988 11.1598H471.804C471.41 9.75889 470.758 8.56664 469.849 7.58303C468.94 6.59942 467.833 5.85427 466.53 5.34756C465.226 4.81105 463.771 4.54279 462.164 4.54279C460.103 4.54279 458.223 4.97498 456.526 5.83937C454.828 6.70375 453.464 7.95561 452.433 9.59496C451.433 11.2343 450.933 13.2611 450.933 15.6754C450.933 18.0599 451.433 20.0868 452.433 21.7559C453.464 23.3953 454.828 24.6471 456.526 25.5115C458.223 26.3461 460.103 26.7634 462.164 26.7634C463.771 26.7634 465.211 26.51 466.484 26.0033C467.788 25.4966 468.894 24.7514 469.804 23.7678C470.713 22.7842 471.38 21.6069 471.804 20.2358H475.942ZM490.675 16.0331L490.63 13.6635L508.591 30.1613H502.452L486.264 14.9601L500.588 1.14488H506.636L490.675 16.0331ZM481.899 1.14488H486.264V30.1613H481.899V1.14488ZM510.298 1.14488H536.171V4.98989H510.298V1.14488ZM521.029 4.54279H525.44V30.1613H521.029V4.54279ZM580.057 20.4593C579.754 22.5458 579.026 24.3491 577.874 25.8692C576.722 27.3893 575.252 28.5666 573.463 29.4012C571.705 30.206 569.735 30.6084 567.552 30.6084C565.521 30.6084 563.641 30.2656 561.913 29.5801C560.185 28.8647 558.67 27.8513 557.366 26.5398C556.093 25.2283 555.093 23.6486 554.365 21.8006C553.637 19.9526 553.274 17.896 553.274 15.6307C553.274 13.3356 553.637 11.279 554.365 9.46083C555.093 7.61284 556.093 6.03311 557.366 4.72163C558.67 3.41016 560.185 2.41165 561.913 1.7261C563.641 1.01075 565.521 0.653076 567.552 0.653076C569.765 0.653076 571.751 1.07036 573.509 1.90494C575.297 2.70971 576.768 3.88706 577.919 5.43698C579.071 6.9571 579.799 8.77528 580.102 10.8915H576.737C576.313 9.40121 575.646 8.14935 574.737 7.13594C573.857 6.12253 572.796 5.34756 571.553 4.81105C570.311 4.27454 568.977 4.00628 567.552 4.00628C565.703 4.00628 563.96 4.45338 562.323 5.34756C560.716 6.24175 559.412 7.55323 558.412 9.28199C557.412 11.0108 556.911 13.127 556.911 15.6307C556.911 18.1344 557.412 20.2507 558.412 21.9795C559.412 23.7082 560.716 25.0197 562.323 25.9139C563.96 26.8081 565.703 27.2552 567.552 27.2552C568.977 27.2552 570.295 27.0018 571.508 26.4951C572.751 25.9586 573.812 25.1836 574.691 24.1702C575.6 23.1568 576.267 21.9198 576.692 20.4593H580.057ZM588.418 22.5607V19.2075H602.606V22.5607H588.418ZM582.416 30.1613L593.648 1.10017H597.467L608.79 30.1613H604.879L595.012 3.87215H596.103L586.236 30.1613H582.416ZM630.44 28.0152H628.985L642.444 1.10017H646.082V30.1613H642.444V7.31478L643.172 7.49361L631.531 30.1613H627.893L616.252 7.53832L616.98 7.35949V30.1613H613.342V1.10017H616.98L630.44 28.0152ZM656.172 19.8781V16.5249H665.448C667.267 16.5249 668.737 15.9735 669.859 14.8707C671.011 13.738 671.587 12.2775 671.587 10.4891C671.587 8.64115 671.011 7.18065 669.859 6.10762C668.737 5.00479 667.267 4.45337 665.448 4.45337H656.899V30.1613H653.262V1.10017H665.448C666.812 1.10017 668.085 1.30881 669.268 1.7261C670.45 2.14339 671.481 2.75442 672.36 3.55919C673.269 4.36396 673.967 5.34756 674.452 6.51001C674.967 7.67245 675.225 8.99883 675.225 10.4891C675.225 11.9795 674.967 13.3058 674.452 14.4683C673.967 15.6307 673.269 16.6143 672.36 17.4191C671.481 18.2239 670.45 18.8349 669.268 19.2522C668.085 19.6695 666.812 19.8781 665.448 19.8781H656.172ZM726.837 1.54726H741.388L720.925 18.5368L720.471 18.8945L707.284 30.1613H692.733L714.104 12.5458L714.423 12.2775L726.837 1.54726ZM707.738 1.54726L720.516 12.5905L720.789 12.8587L741.842 30.1613H727.291L713.559 18.4921L713.377 18.3133L693.187 1.54726H707.738ZM778.658 1.54726H793.209L772.747 18.5368L772.292 18.8945L759.105 30.1613H744.554L765.926 12.5458L766.244 12.2775L778.658 1.54726ZM759.56 1.54726L772.338 12.5905L772.611 12.8587L793.664 30.1613H779.113L765.38 18.4921L765.199 18.3133L745.009 1.54726H759.56ZM813.564 30.1613L795.921 1.54726H808.744L823.796 29.0435H819.157L834.209 1.54726H846.85L829.389 30.1613H813.564ZM851.632 1.54726H863V30.1613H851.632V1.54726Z" fill="#051656"/>
</svg>
